<svg width="25" height="25" viewBox="0 0 25 25" fill="none" xmlns="http://www.w3.org/2000/svg">
<g clip-path="url(#clip0_3248_55)">
<path d="M1.56269 1.70122C-0.401896 3.74185 0.000187218 5.90956 0.000187218 12.495C0.000187218 17.9637 -0.95398 23.446 4.03977 24.7366C5.59915 25.1377 19.4158 25.1377 20.9731 24.7346C23.0523 24.1981 24.7439 22.5116 24.9752 19.571C25.0075 19.1606 25.0075 5.83664 24.9741 5.41789C24.7283 2.2856 22.8002 0.480389 20.2596 0.114764C19.6773 0.0303889 19.5606 0.00538891 16.5731 0.000180572C5.97623 0.00538891 3.65331 -0.466486 1.56269 1.70122Z" fill="url(#paint0_linear_3248_55)"/>
<path d="M12.498 3.26965C8.71575 3.26965 5.12409 2.93319 3.75222 6.45403C3.18555 7.90819 3.26784 9.79674 3.26784 12.5009C3.26784 14.8738 3.1918 17.104 3.75222 18.5467C5.12096 22.0697 8.7418 21.7322 12.496 21.7322C16.1178 21.7322 19.8522 22.1092 21.2408 18.5467C21.8085 17.078 21.7251 15.2176 21.7251 12.5009C21.7251 8.89465 21.9241 6.56653 20.1751 4.81861C18.4043 3.04778 16.0095 3.26965 12.4939 3.26965H12.498ZM11.671 4.93319C19.5605 4.92069 20.5647 4.04361 20.0105 16.228C19.8137 20.5374 16.5324 20.0644 12.4991 20.0644C5.14492 20.0644 4.93346 19.854 4.93346 12.4967C4.93346 5.05403 5.5168 4.93736 11.671 4.93111V4.93319ZM17.4251 6.46548C16.8137 6.46548 16.3178 6.96132 16.3178 7.57278C16.3178 8.18424 16.8137 8.68007 17.4251 8.68007C18.0366 8.68007 18.5324 8.18424 18.5324 7.57278C18.5324 6.96132 18.0366 6.46548 17.4251 6.46548ZM12.498 7.76028C9.88034 7.76028 7.75846 9.88319 7.75846 12.5009C7.75846 15.1186 9.88034 17.2405 12.498 17.2405C15.1158 17.2405 17.2366 15.1186 17.2366 12.5009C17.2366 9.88319 15.1158 7.76028 12.498 7.76028ZM12.498 9.42382C16.5658 9.42382 16.571 15.578 12.498 15.578C8.43138 15.578 8.42513 9.42382 12.498 9.42382Z" fill="white"/>
</g>
<defs>
<linearGradient id="paint0_linear_3248_55" x1="1.61062" y1="23.4034" x2="24.8455" y2="3.29391" gradientUnits="userSpaceOnUse">
<stop stop-color="#FFDD55"/>
<stop offset="0.5" stop-color="#FF543E"/>
<stop offset="1" stop-color="#C837AB"/>
</linearGradient>
<clipPath id="clip0_3248_55">
<rect width="25" height="25" fill="white"/>
</clipPath>
</defs>
</svg>
